<mxfile host="app.diagrams.net" agent="Mozilla/5.0 (Macintosh; Intel Mac OS X 10_15_7) AppleWebKit/537.36 (KHTML, like Gecko) Chrome/138.0.0.0 Safari/537.36" version="28.2.8">
  <diagram name="第 1 页" id="n1fxwjfjKRrFfD9Wi5qL">
    <mxGraphModel dx="1892" dy="1288" grid="0" gridSize="10" guides="1" tooltips="1" connect="1" arrows="1" fold="1" page="1" pageScale="1" pageWidth="827" pageHeight="1169" math="0" shadow="0">
      <root>
        <mxCell id="0" />
        <mxCell id="1" parent="0" />
        <mxCell id="NgSyf8qIBcioqC7GMqng-79" style="edgeStyle=orthogonalEdgeStyle;rounded=0;orthogonalLoop=1;jettySize=auto;html=1;curved=0;exitX=0;exitY=1;exitDx=0;exitDy=-5;exitPerimeter=0;entryX=1;entryY=0;entryDx=0;entryDy=5;entryPerimeter=0;" edge="1" parent="1" source="NgSyf8qIBcioqC7GMqng-78" target="NgSyf8qIBcioqC7GMqng-30">
          <mxGeometry relative="1" as="geometry">
            <Array as="points">
              <mxPoint x="323" y="509" />
              <mxPoint x="323" y="525" />
            </Array>
          </mxGeometry>
        </mxCell>
        <mxCell id="NgSyf8qIBcioqC7GMqng-25" value="二级路由更新服务" style="shape=umlLifeline;perimeter=lifelinePerimeter;whiteSpace=wrap;html=1;container=1;dropTarget=0;collapsible=0;recursiveResize=0;outlineConnect=0;portConstraint=eastwest;newEdgeStyle={&quot;curved&quot;:0,&quot;rounded&quot;:0};" vertex="1" parent="1">
          <mxGeometry x="142" y="349" width="100" height="565" as="geometry" />
        </mxCell>
        <mxCell id="NgSyf8qIBcioqC7GMqng-29" value="" style="html=1;points=[[0,0,0,0,5],[0,1,0,0,-5],[1,0,0,0,5],[1,1,0,0,-5]];perimeter=orthogonalPerimeter;outlineConnect=0;targetShapes=umlLifeline;portConstraint=eastwest;newEdgeStyle={&quot;curved&quot;:0,&quot;rounded&quot;:0};" vertex="1" parent="NgSyf8qIBcioqC7GMqng-25">
          <mxGeometry x="45" y="60" width="10" height="48" as="geometry" />
        </mxCell>
        <mxCell id="NgSyf8qIBcioqC7GMqng-30" value="" style="html=1;points=[[0,0,0,0,5],[0,1,0,0,-5],[1,0,0,0,5],[1,1,0,0,-5]];perimeter=orthogonalPerimeter;outlineConnect=0;targetShapes=umlLifeline;portConstraint=eastwest;newEdgeStyle={&quot;curved&quot;:0,&quot;rounded&quot;:0};" vertex="1" parent="NgSyf8qIBcioqC7GMqng-25">
          <mxGeometry x="45" y="171" width="10" height="80" as="geometry" />
        </mxCell>
        <mxCell id="NgSyf8qIBcioqC7GMqng-57" value="" style="html=1;points=[[0,0,0,0,5],[0,1,0,0,-5],[1,0,0,0,5],[1,1,0,0,-5]];perimeter=orthogonalPerimeter;outlineConnect=0;targetShapes=umlLifeline;portConstraint=eastwest;newEdgeStyle={&quot;curved&quot;:0,&quot;rounded&quot;:0};" vertex="1" parent="NgSyf8qIBcioqC7GMqng-25">
          <mxGeometry x="45" y="354" width="10" height="128" as="geometry" />
        </mxCell>
        <mxCell id="NgSyf8qIBcioqC7GMqng-26" value="一级注册中心" style="shape=umlLifeline;perimeter=lifelinePerimeter;whiteSpace=wrap;html=1;container=1;dropTarget=0;collapsible=0;recursiveResize=0;outlineConnect=0;portConstraint=eastwest;newEdgeStyle={&quot;curved&quot;:0,&quot;rounded&quot;:0};" vertex="1" parent="1">
          <mxGeometry x="310" y="349" width="100" height="572" as="geometry" />
        </mxCell>
        <mxCell id="NgSyf8qIBcioqC7GMqng-32" value="" style="html=1;points=[[0,0,0,0,5],[0,1,0,0,-5],[1,0,0,0,5],[1,1,0,0,-5]];perimeter=orthogonalPerimeter;outlineConnect=0;targetShapes=umlLifeline;portConstraint=eastwest;newEdgeStyle={&quot;curved&quot;:0,&quot;rounded&quot;:0};" vertex="1" parent="NgSyf8qIBcioqC7GMqng-26">
          <mxGeometry x="45" y="60" width="10" height="27" as="geometry" />
        </mxCell>
        <mxCell id="NgSyf8qIBcioqC7GMqng-69" value="" style="html=1;points=[[0,0,0,0,5],[0,1,0,0,-5],[1,0,0,0,5],[1,1,0,0,-5]];perimeter=orthogonalPerimeter;outlineConnect=0;targetShapes=umlLifeline;portConstraint=eastwest;newEdgeStyle={&quot;curved&quot;:0,&quot;rounded&quot;:0};" vertex="1" parent="NgSyf8qIBcioqC7GMqng-26">
          <mxGeometry x="45" y="394" width="10" height="27" as="geometry" />
        </mxCell>
        <mxCell id="NgSyf8qIBcioqC7GMqng-78" value="" style="html=1;points=[[0,0,0,0,5],[0,1,0,0,-5],[1,0,0,0,5],[1,1,0,0,-5]];perimeter=orthogonalPerimeter;outlineConnect=0;targetShapes=umlLifeline;portConstraint=eastwest;newEdgeStyle={&quot;curved&quot;:0,&quot;rounded&quot;:0};" vertex="1" parent="NgSyf8qIBcioqC7GMqng-26">
          <mxGeometry x="45" y="136" width="10" height="29" as="geometry" />
        </mxCell>
        <mxCell id="NgSyf8qIBcioqC7GMqng-27" value="二级注册中心" style="shape=umlLifeline;perimeter=lifelinePerimeter;whiteSpace=wrap;html=1;container=1;dropTarget=0;collapsible=0;recursiveResize=0;outlineConnect=0;portConstraint=eastwest;newEdgeStyle={&quot;curved&quot;:0,&quot;rounded&quot;:0};" vertex="1" parent="1">
          <mxGeometry x="436" y="349" width="100" height="569" as="geometry" />
        </mxCell>
        <mxCell id="NgSyf8qIBcioqC7GMqng-31" value="" style="html=1;points=[[0,0,0,0,5],[0,1,0,0,-5],[1,0,0,0,5],[1,1,0,0,-5]];perimeter=orthogonalPerimeter;outlineConnect=0;targetShapes=umlLifeline;portConstraint=eastwest;newEdgeStyle={&quot;curved&quot;:0,&quot;rounded&quot;:0};" vertex="1" parent="NgSyf8qIBcioqC7GMqng-27">
          <mxGeometry x="45" y="78" width="10" height="29" as="geometry" />
        </mxCell>
        <mxCell id="NgSyf8qIBcioqC7GMqng-48" value="" style="html=1;points=[[0,0,0,0,5],[0,1,0,0,-5],[1,0,0,0,5],[1,1,0,0,-5]];perimeter=orthogonalPerimeter;outlineConnect=0;targetShapes=umlLifeline;portConstraint=eastwest;newEdgeStyle={&quot;curved&quot;:0,&quot;rounded&quot;:0};" vertex="1" parent="NgSyf8qIBcioqC7GMqng-27">
          <mxGeometry x="45" y="171" width="10" height="29" as="geometry" />
        </mxCell>
        <mxCell id="NgSyf8qIBcioqC7GMqng-70" value="" style="html=1;points=[[0,0,0,0,5],[0,1,0,0,-5],[1,0,0,0,5],[1,1,0,0,-5]];perimeter=orthogonalPerimeter;outlineConnect=0;targetShapes=umlLifeline;portConstraint=eastwest;newEdgeStyle={&quot;curved&quot;:0,&quot;rounded&quot;:0};" vertex="1" parent="NgSyf8qIBcioqC7GMqng-27">
          <mxGeometry x="45" y="405" width="10" height="29" as="geometry" />
        </mxCell>
        <mxCell id="NgSyf8qIBcioqC7GMqng-28" value="业务系统边车、gateway" style="shape=umlLifeline;perimeter=lifelinePerimeter;whiteSpace=wrap;html=1;container=1;dropTarget=0;collapsible=0;recursiveResize=0;outlineConnect=0;portConstraint=eastwest;newEdgeStyle={&quot;curved&quot;:0,&quot;rounded&quot;:0};" vertex="1" parent="1">
          <mxGeometry x="558" y="349" width="100" height="572" as="geometry" />
        </mxCell>
        <mxCell id="NgSyf8qIBcioqC7GMqng-74" value="" style="html=1;points=[[0,0,0,0,5],[0,1,0,0,-5],[1,0,0,0,5],[1,1,0,0,-5]];perimeter=orthogonalPerimeter;outlineConnect=0;targetShapes=umlLifeline;portConstraint=eastwest;newEdgeStyle={&quot;curved&quot;:0,&quot;rounded&quot;:0};" vertex="1" parent="NgSyf8qIBcioqC7GMqng-28">
          <mxGeometry x="45" y="463" width="10" height="29" as="geometry" />
        </mxCell>
        <mxCell id="NgSyf8qIBcioqC7GMqng-33" value="" style="endArrow=classic;html=1;rounded=0;exitX=1;exitY=0;exitDx=0;exitDy=5;exitPerimeter=0;entryX=0;entryY=0;entryDx=0;entryDy=5;entryPerimeter=0;" edge="1" parent="1" source="NgSyf8qIBcioqC7GMqng-29" target="NgSyf8qIBcioqC7GMqng-32">
          <mxGeometry width="50" height="50" relative="1" as="geometry">
            <mxPoint x="274" y="434" as="sourcePoint" />
            <mxPoint x="407" y="496" as="targetPoint" />
          </mxGeometry>
        </mxCell>
        <mxCell id="NgSyf8qIBcioqC7GMqng-34" value="监听网格基础服务及&lt;div&gt;各系统gateway变化&lt;/div&gt;" style="edgeLabel;html=1;align=center;verticalAlign=middle;resizable=0;points=[];" vertex="1" connectable="0" parent="NgSyf8qIBcioqC7GMqng-33">
          <mxGeometry x="-0.0023" relative="1" as="geometry">
            <mxPoint as="offset" />
          </mxGeometry>
        </mxCell>
        <mxCell id="NgSyf8qIBcioqC7GMqng-35" value="" style="endArrow=classic;html=1;rounded=0;entryX=0;entryY=1;entryDx=0;entryDy=-5;entryPerimeter=0;exitX=1;exitY=1;exitDx=0;exitDy=-5;exitPerimeter=0;" edge="1" parent="1" source="NgSyf8qIBcioqC7GMqng-29" target="NgSyf8qIBcioqC7GMqng-31">
          <mxGeometry width="50" height="50" relative="1" as="geometry">
            <mxPoint x="357" y="546" as="sourcePoint" />
            <mxPoint x="407" y="496" as="targetPoint" />
          </mxGeometry>
        </mxCell>
        <mxCell id="NgSyf8qIBcioqC7GMqng-36" value="监听业务系统变化" style="edgeLabel;html=1;align=center;verticalAlign=middle;resizable=0;points=[];" vertex="1" connectable="0" parent="NgSyf8qIBcioqC7GMqng-35">
          <mxGeometry x="-0.5252" y="1" relative="1" as="geometry">
            <mxPoint x="155" y="-1" as="offset" />
          </mxGeometry>
        </mxCell>
        <mxCell id="NgSyf8qIBcioqC7GMqng-40" value="1. 建立监听" style="shape=document;whiteSpace=wrap;html=1;boundedLbl=1;" vertex="1" parent="1">
          <mxGeometry x="58" y="409" width="103" height="43" as="geometry" />
        </mxCell>
        <mxCell id="NgSyf8qIBcioqC7GMqng-42" value="&lt;span style=&quot;background-color: transparent; color: light-dark(rgb(0, 0, 0), rgb(255, 255, 255));&quot;&gt;2. 校验是否更新&lt;/span&gt;" style="shape=document;whiteSpace=wrap;html=1;boundedLbl=1;" vertex="1" parent="1">
          <mxGeometry x="58" y="538" width="103" height="43" as="geometry" />
        </mxCell>
        <mxCell id="NgSyf8qIBcioqC7GMqng-43" value="" style="outlineConnect=0;dashed=0;verticalLabelPosition=bottom;verticalAlign=top;align=center;html=1;shape=mxgraph.aws3.cache_node;fillColor=#2E73B8;gradientColor=none;" vertex="1" parent="1">
          <mxGeometry x="282" y="617" width="60" height="63" as="geometry" />
        </mxCell>
        <mxCell id="NgSyf8qIBcioqC7GMqng-46" value="" style="shape=flexArrow;endArrow=classic;html=1;rounded=0;entryX=0.5;entryY=0;entryDx=0;entryDy=0;" edge="1" parent="1" target="NgSyf8qIBcioqC7GMqng-42">
          <mxGeometry width="50" height="50" relative="1" as="geometry">
            <mxPoint x="109" y="461" as="sourcePoint" />
            <mxPoint x="149" y="448" as="targetPoint" />
          </mxGeometry>
        </mxCell>
        <mxCell id="NgSyf8qIBcioqC7GMqng-52" style="edgeStyle=orthogonalEdgeStyle;rounded=0;orthogonalLoop=1;jettySize=auto;html=1;curved=0;exitX=0;exitY=0;exitDx=0;exitDy=5;exitPerimeter=0;entryX=1;entryY=0;entryDx=0;entryDy=5;entryPerimeter=0;" edge="1" parent="1" source="NgSyf8qIBcioqC7GMqng-48" target="NgSyf8qIBcioqC7GMqng-30">
          <mxGeometry relative="1" as="geometry" />
        </mxCell>
        <mxCell id="NgSyf8qIBcioqC7GMqng-53" value="接收变更通知" style="edgeLabel;html=1;align=center;verticalAlign=middle;resizable=0;points=[];" vertex="1" connectable="0" parent="NgSyf8qIBcioqC7GMqng-52">
          <mxGeometry x="0.5964" relative="1" as="geometry">
            <mxPoint as="offset" />
          </mxGeometry>
        </mxCell>
        <mxCell id="NgSyf8qIBcioqC7GMqng-54" style="edgeStyle=orthogonalEdgeStyle;rounded=0;orthogonalLoop=1;jettySize=auto;html=1;curved=0;exitX=1;exitY=1;exitDx=0;exitDy=-5;exitPerimeter=0;" edge="1" parent="1" source="NgSyf8qIBcioqC7GMqng-30" target="NgSyf8qIBcioqC7GMqng-43">
          <mxGeometry relative="1" as="geometry" />
        </mxCell>
        <mxCell id="NgSyf8qIBcioqC7GMqng-55" value="对比本地缓存&lt;div&gt;校验&lt;span style=&quot;background-color: light-dark(#ffffff, var(--ge-dark-color, #121212)); color: light-dark(rgb(0, 0, 0), rgb(255, 255, 255));&quot;&gt;是否更新&lt;/span&gt;&lt;/div&gt;" style="edgeLabel;html=1;align=center;verticalAlign=middle;resizable=0;points=[];" vertex="1" connectable="0" parent="NgSyf8qIBcioqC7GMqng-54">
          <mxGeometry x="-0.15" y="1" relative="1" as="geometry">
            <mxPoint as="offset" />
          </mxGeometry>
        </mxCell>
        <mxCell id="NgSyf8qIBcioqC7GMqng-56" value="3. 生成路由表并下发" style="shape=document;whiteSpace=wrap;html=1;boundedLbl=1;" vertex="1" parent="1">
          <mxGeometry x="47" y="732" width="118" height="43" as="geometry" />
        </mxCell>
        <mxCell id="NgSyf8qIBcioqC7GMqng-58" style="edgeStyle=orthogonalEdgeStyle;rounded=0;orthogonalLoop=1;jettySize=auto;html=1;curved=0;exitX=1;exitY=0;exitDx=0;exitDy=5;exitPerimeter=0;entryX=0;entryY=0.5;entryDx=0;entryDy=0;entryPerimeter=0;" edge="1" parent="1" source="NgSyf8qIBcioqC7GMqng-57" target="NgSyf8qIBcioqC7GMqng-43">
          <mxGeometry relative="1" as="geometry">
            <Array as="points">
              <mxPoint x="218" y="727" />
              <mxPoint x="218" y="649" />
            </Array>
          </mxGeometry>
        </mxCell>
        <mxCell id="NgSyf8qIBcioqC7GMqng-59" value="更新本地缓存" style="edgeLabel;html=1;align=center;verticalAlign=middle;resizable=0;points=[];" vertex="1" connectable="0" parent="NgSyf8qIBcioqC7GMqng-58">
          <mxGeometry x="-0.0103" y="-1" relative="1" as="geometry">
            <mxPoint as="offset" />
          </mxGeometry>
        </mxCell>
        <mxCell id="NgSyf8qIBcioqC7GMqng-60" value="接收变更通知" style="text;html=1;whiteSpace=wrap;strokeColor=none;fillColor=none;align=center;verticalAlign=middle;rounded=0;" vertex="1" parent="1">
          <mxGeometry x="50" y="475" width="60" height="30" as="geometry" />
        </mxCell>
        <mxCell id="NgSyf8qIBcioqC7GMqng-61" value="" style="shape=flexArrow;endArrow=classic;html=1;rounded=0;" edge="1" parent="1">
          <mxGeometry width="50" height="50" relative="1" as="geometry">
            <mxPoint x="109.07" y="587.5" as="sourcePoint" />
            <mxPoint x="109.07" y="709.5" as="targetPoint" />
          </mxGeometry>
        </mxCell>
        <mxCell id="NgSyf8qIBcioqC7GMqng-62" value="确认更新" style="text;html=1;whiteSpace=wrap;strokeColor=none;fillColor=none;align=center;verticalAlign=middle;rounded=0;" vertex="1" parent="1">
          <mxGeometry x="45" y="618.5" width="60" height="30" as="geometry" />
        </mxCell>
        <mxCell id="NgSyf8qIBcioqC7GMqng-72" value="" style="endArrow=classic;html=1;rounded=0;entryX=0;entryY=0;entryDx=0;entryDy=5;entryPerimeter=0;" edge="1" parent="1" source="NgSyf8qIBcioqC7GMqng-57" target="NgSyf8qIBcioqC7GMqng-69">
          <mxGeometry width="50" height="50" relative="1" as="geometry">
            <mxPoint x="197" y="757" as="sourcePoint" />
            <mxPoint x="247" y="707" as="targetPoint" />
          </mxGeometry>
        </mxCell>
        <mxCell id="NgSyf8qIBcioqC7GMqng-77" value="重新从注册中心查询数据&lt;div&gt;生成路由表&lt;/div&gt;" style="edgeLabel;html=1;align=center;verticalAlign=middle;resizable=0;points=[];fontColor=#FF0000;" vertex="1" connectable="0" parent="NgSyf8qIBcioqC7GMqng-72">
          <mxGeometry x="-0.3409" y="-1" relative="1" as="geometry">
            <mxPoint x="16" y="5" as="offset" />
          </mxGeometry>
        </mxCell>
        <mxCell id="NgSyf8qIBcioqC7GMqng-73" value="" style="endArrow=classic;html=1;rounded=0;entryX=0;entryY=1;entryDx=0;entryDy=-5;entryPerimeter=0;edgeStyle=orthogonalEdgeStyle;" edge="1" parent="1" target="NgSyf8qIBcioqC7GMqng-70">
          <mxGeometry width="50" height="50" relative="1" as="geometry">
            <mxPoint x="335" y="749" as="sourcePoint" />
            <mxPoint x="410" y="732" as="targetPoint" />
          </mxGeometry>
        </mxCell>
        <mxCell id="NgSyf8qIBcioqC7GMqng-75" style="edgeStyle=orthogonalEdgeStyle;rounded=0;orthogonalLoop=1;jettySize=auto;html=1;curved=0;exitX=1;exitY=1;exitDx=0;exitDy=-5;exitPerimeter=0;" edge="1" parent="1" source="NgSyf8qIBcioqC7GMqng-57" target="NgSyf8qIBcioqC7GMqng-74">
          <mxGeometry relative="1" as="geometry" />
        </mxCell>
        <mxCell id="NgSyf8qIBcioqC7GMqng-76" value="下发路由配置" style="edgeLabel;html=1;align=center;verticalAlign=middle;resizable=0;points=[];" vertex="1" connectable="0" parent="NgSyf8qIBcioqC7GMqng-75">
          <mxGeometry x="0.0085" relative="1" as="geometry">
            <mxPoint as="offset" />
          </mxGeometry>
        </mxCell>
        <mxCell id="NgSyf8qIBcioqC7GMqng-80" style="edgeStyle=orthogonalEdgeStyle;rounded=0;orthogonalLoop=1;jettySize=auto;html=1;curved=0;exitX=0;exitY=1;exitDx=0;exitDy=-5;exitPerimeter=0;entryX=1;entryY=0;entryDx=0;entryDy=5;entryPerimeter=0;" edge="1" parent="1" source="NgSyf8qIBcioqC7GMqng-88" target="NgSyf8qIBcioqC7GMqng-83">
          <mxGeometry relative="1" as="geometry">
            <Array as="points">
              <mxPoint x="1155" y="507.5" />
              <mxPoint x="1155" y="523.5" />
            </Array>
          </mxGeometry>
        </mxCell>
        <mxCell id="NgSyf8qIBcioqC7GMqng-81" value="二级路由更新服务" style="shape=umlLifeline;perimeter=lifelinePerimeter;whiteSpace=wrap;html=1;container=1;dropTarget=0;collapsible=0;recursiveResize=0;outlineConnect=0;portConstraint=eastwest;newEdgeStyle={&quot;curved&quot;:0,&quot;rounded&quot;:0};" vertex="1" parent="1">
          <mxGeometry x="974" y="347.5" width="100" height="565" as="geometry" />
        </mxCell>
        <mxCell id="NgSyf8qIBcioqC7GMqng-82" value="" style="html=1;points=[[0,0,0,0,5],[0,1,0,0,-5],[1,0,0,0,5],[1,1,0,0,-5]];perimeter=orthogonalPerimeter;outlineConnect=0;targetShapes=umlLifeline;portConstraint=eastwest;newEdgeStyle={&quot;curved&quot;:0,&quot;rounded&quot;:0};" vertex="1" parent="NgSyf8qIBcioqC7GMqng-81">
          <mxGeometry x="45" y="60" width="10" height="48" as="geometry" />
        </mxCell>
        <mxCell id="NgSyf8qIBcioqC7GMqng-83" value="" style="html=1;points=[[0,0,0,0,5],[0,1,0,0,-5],[1,0,0,0,5],[1,1,0,0,-5]];perimeter=orthogonalPerimeter;outlineConnect=0;targetShapes=umlLifeline;portConstraint=eastwest;newEdgeStyle={&quot;curved&quot;:0,&quot;rounded&quot;:0};" vertex="1" parent="NgSyf8qIBcioqC7GMqng-81">
          <mxGeometry x="45" y="171" width="10" height="80" as="geometry" />
        </mxCell>
        <mxCell id="NgSyf8qIBcioqC7GMqng-84" value="" style="html=1;points=[[0,0,0,0,5],[0,1,0,0,-5],[1,0,0,0,5],[1,1,0,0,-5]];perimeter=orthogonalPerimeter;outlineConnect=0;targetShapes=umlLifeline;portConstraint=eastwest;newEdgeStyle={&quot;curved&quot;:0,&quot;rounded&quot;:0};" vertex="1" parent="NgSyf8qIBcioqC7GMqng-81">
          <mxGeometry x="45" y="354" width="10" height="128" as="geometry" />
        </mxCell>
        <mxCell id="NgSyf8qIBcioqC7GMqng-85" value="一级注册中心" style="shape=umlLifeline;perimeter=lifelinePerimeter;whiteSpace=wrap;html=1;container=1;dropTarget=0;collapsible=0;recursiveResize=0;outlineConnect=0;portConstraint=eastwest;newEdgeStyle={&quot;curved&quot;:0,&quot;rounded&quot;:0};" vertex="1" parent="1">
          <mxGeometry x="1142" y="347.5" width="100" height="217.5" as="geometry" />
        </mxCell>
        <mxCell id="NgSyf8qIBcioqC7GMqng-86" value="" style="html=1;points=[[0,0,0,0,5],[0,1,0,0,-5],[1,0,0,0,5],[1,1,0,0,-5]];perimeter=orthogonalPerimeter;outlineConnect=0;targetShapes=umlLifeline;portConstraint=eastwest;newEdgeStyle={&quot;curved&quot;:0,&quot;rounded&quot;:0};" vertex="1" parent="NgSyf8qIBcioqC7GMqng-85">
          <mxGeometry x="45" y="60" width="10" height="27" as="geometry" />
        </mxCell>
        <mxCell id="NgSyf8qIBcioqC7GMqng-88" value="" style="html=1;points=[[0,0,0,0,5],[0,1,0,0,-5],[1,0,0,0,5],[1,1,0,0,-5]];perimeter=orthogonalPerimeter;outlineConnect=0;targetShapes=umlLifeline;portConstraint=eastwest;newEdgeStyle={&quot;curved&quot;:0,&quot;rounded&quot;:0};" vertex="1" parent="NgSyf8qIBcioqC7GMqng-85">
          <mxGeometry x="45" y="136" width="10" height="29" as="geometry" />
        </mxCell>
        <mxCell id="NgSyf8qIBcioqC7GMqng-89" value="二级注册中心" style="shape=umlLifeline;perimeter=lifelinePerimeter;whiteSpace=wrap;html=1;container=1;dropTarget=0;collapsible=0;recursiveResize=0;outlineConnect=0;portConstraint=eastwest;newEdgeStyle={&quot;curved&quot;:0,&quot;rounded&quot;:0};" vertex="1" parent="1">
          <mxGeometry x="1268" y="347.5" width="100" height="220.5" as="geometry" />
        </mxCell>
        <mxCell id="NgSyf8qIBcioqC7GMqng-90" value="" style="html=1;points=[[0,0,0,0,5],[0,1,0,0,-5],[1,0,0,0,5],[1,1,0,0,-5]];perimeter=orthogonalPerimeter;outlineConnect=0;targetShapes=umlLifeline;portConstraint=eastwest;newEdgeStyle={&quot;curved&quot;:0,&quot;rounded&quot;:0};" vertex="1" parent="NgSyf8qIBcioqC7GMqng-89">
          <mxGeometry x="45" y="78" width="10" height="29" as="geometry" />
        </mxCell>
        <mxCell id="NgSyf8qIBcioqC7GMqng-91" value="" style="html=1;points=[[0,0,0,0,5],[0,1,0,0,-5],[1,0,0,0,5],[1,1,0,0,-5]];perimeter=orthogonalPerimeter;outlineConnect=0;targetShapes=umlLifeline;portConstraint=eastwest;newEdgeStyle={&quot;curved&quot;:0,&quot;rounded&quot;:0};" vertex="1" parent="NgSyf8qIBcioqC7GMqng-89">
          <mxGeometry x="45" y="171" width="10" height="29" as="geometry" />
        </mxCell>
        <mxCell id="NgSyf8qIBcioqC7GMqng-93" value="业务系统边车、gateway" style="shape=umlLifeline;perimeter=lifelinePerimeter;whiteSpace=wrap;html=1;container=1;dropTarget=0;collapsible=0;recursiveResize=0;outlineConnect=0;portConstraint=eastwest;newEdgeStyle={&quot;curved&quot;:0,&quot;rounded&quot;:0};" vertex="1" parent="1">
          <mxGeometry x="1390" y="347.5" width="100" height="572" as="geometry" />
        </mxCell>
        <mxCell id="NgSyf8qIBcioqC7GMqng-94" value="" style="html=1;points=[[0,0,0,0,5],[0,1,0,0,-5],[1,0,0,0,5],[1,1,0,0,-5]];perimeter=orthogonalPerimeter;outlineConnect=0;targetShapes=umlLifeline;portConstraint=eastwest;newEdgeStyle={&quot;curved&quot;:0,&quot;rounded&quot;:0};" vertex="1" parent="NgSyf8qIBcioqC7GMqng-93">
          <mxGeometry x="45" y="463" width="10" height="29" as="geometry" />
        </mxCell>
        <mxCell id="NgSyf8qIBcioqC7GMqng-95" value="" style="endArrow=classic;html=1;rounded=0;exitX=1;exitY=0;exitDx=0;exitDy=5;exitPerimeter=0;entryX=0;entryY=0;entryDx=0;entryDy=5;entryPerimeter=0;" edge="1" parent="1" source="NgSyf8qIBcioqC7GMqng-82" target="NgSyf8qIBcioqC7GMqng-86">
          <mxGeometry width="50" height="50" relative="1" as="geometry">
            <mxPoint x="1106" y="432.5" as="sourcePoint" />
            <mxPoint x="1239" y="494.5" as="targetPoint" />
          </mxGeometry>
        </mxCell>
        <mxCell id="NgSyf8qIBcioqC7GMqng-96" value="监听网格基础服务及&lt;div&gt;各系统gateway变化&lt;/div&gt;" style="edgeLabel;html=1;align=center;verticalAlign=middle;resizable=0;points=[];" vertex="1" connectable="0" parent="NgSyf8qIBcioqC7GMqng-95">
          <mxGeometry x="-0.0023" relative="1" as="geometry">
            <mxPoint as="offset" />
          </mxGeometry>
        </mxCell>
        <mxCell id="NgSyf8qIBcioqC7GMqng-97" value="" style="endArrow=classic;html=1;rounded=0;entryX=0;entryY=1;entryDx=0;entryDy=-5;entryPerimeter=0;exitX=1;exitY=1;exitDx=0;exitDy=-5;exitPerimeter=0;" edge="1" parent="1" source="NgSyf8qIBcioqC7GMqng-82" target="NgSyf8qIBcioqC7GMqng-90">
          <mxGeometry width="50" height="50" relative="1" as="geometry">
            <mxPoint x="1189" y="544.5" as="sourcePoint" />
            <mxPoint x="1239" y="494.5" as="targetPoint" />
          </mxGeometry>
        </mxCell>
        <mxCell id="NgSyf8qIBcioqC7GMqng-98" value="监听业务系统变化" style="edgeLabel;html=1;align=center;verticalAlign=middle;resizable=0;points=[];" vertex="1" connectable="0" parent="NgSyf8qIBcioqC7GMqng-97">
          <mxGeometry x="-0.5252" y="1" relative="1" as="geometry">
            <mxPoint x="155" y="-1" as="offset" />
          </mxGeometry>
        </mxCell>
        <mxCell id="NgSyf8qIBcioqC7GMqng-99" value="1. 建立监听" style="shape=document;whiteSpace=wrap;html=1;boundedLbl=1;" vertex="1" parent="1">
          <mxGeometry x="890" y="407.5" width="103" height="43" as="geometry" />
        </mxCell>
        <mxCell id="NgSyf8qIBcioqC7GMqng-100" value="&lt;span style=&quot;background-color: transparent; color: light-dark(rgb(0, 0, 0), rgb(255, 255, 255));&quot;&gt;2. 校验是否更新&lt;/span&gt;" style="shape=document;whiteSpace=wrap;html=1;boundedLbl=1;" vertex="1" parent="1">
          <mxGeometry x="890" y="536.5" width="103" height="43" as="geometry" />
        </mxCell>
        <mxCell id="NgSyf8qIBcioqC7GMqng-101" value="" style="outlineConnect=0;dashed=0;verticalLabelPosition=bottom;verticalAlign=top;align=center;html=1;shape=mxgraph.aws3.cache_node;fillColor=#2E73B8;gradientColor=none;" vertex="1" parent="1">
          <mxGeometry x="1114" y="615.5" width="60" height="63" as="geometry" />
        </mxCell>
        <mxCell id="NgSyf8qIBcioqC7GMqng-102" value="" style="shape=flexArrow;endArrow=classic;html=1;rounded=0;entryX=0.5;entryY=0;entryDx=0;entryDy=0;" edge="1" parent="1" target="NgSyf8qIBcioqC7GMqng-100">
          <mxGeometry width="50" height="50" relative="1" as="geometry">
            <mxPoint x="941" y="459.5" as="sourcePoint" />
            <mxPoint x="981" y="446.5" as="targetPoint" />
          </mxGeometry>
        </mxCell>
        <mxCell id="NgSyf8qIBcioqC7GMqng-103" style="edgeStyle=orthogonalEdgeStyle;rounded=0;orthogonalLoop=1;jettySize=auto;html=1;curved=0;exitX=0;exitY=0;exitDx=0;exitDy=5;exitPerimeter=0;entryX=1;entryY=0;entryDx=0;entryDy=5;entryPerimeter=0;" edge="1" parent="1" source="NgSyf8qIBcioqC7GMqng-91" target="NgSyf8qIBcioqC7GMqng-83">
          <mxGeometry relative="1" as="geometry" />
        </mxCell>
        <mxCell id="NgSyf8qIBcioqC7GMqng-104" value="接收变更通知" style="edgeLabel;html=1;align=center;verticalAlign=middle;resizable=0;points=[];" vertex="1" connectable="0" parent="NgSyf8qIBcioqC7GMqng-103">
          <mxGeometry x="0.5964" relative="1" as="geometry">
            <mxPoint as="offset" />
          </mxGeometry>
        </mxCell>
        <mxCell id="NgSyf8qIBcioqC7GMqng-105" style="edgeStyle=orthogonalEdgeStyle;rounded=0;orthogonalLoop=1;jettySize=auto;html=1;curved=0;exitX=1;exitY=1;exitDx=0;exitDy=-5;exitPerimeter=0;" edge="1" parent="1" source="NgSyf8qIBcioqC7GMqng-83" target="NgSyf8qIBcioqC7GMqng-101">
          <mxGeometry relative="1" as="geometry" />
        </mxCell>
        <mxCell id="NgSyf8qIBcioqC7GMqng-106" value="对比本地缓存&lt;div&gt;校验&lt;span style=&quot;background-color: light-dark(#ffffff, var(--ge-dark-color, #121212)); color: light-dark(rgb(0, 0, 0), rgb(255, 255, 255));&quot;&gt;是否更新&lt;/span&gt;&lt;/div&gt;" style="edgeLabel;html=1;align=center;verticalAlign=middle;resizable=0;points=[];" vertex="1" connectable="0" parent="NgSyf8qIBcioqC7GMqng-105">
          <mxGeometry x="-0.15" y="1" relative="1" as="geometry">
            <mxPoint as="offset" />
          </mxGeometry>
        </mxCell>
        <mxCell id="NgSyf8qIBcioqC7GMqng-107" value="3. 生成路由表并下发" style="shape=document;whiteSpace=wrap;html=1;boundedLbl=1;" vertex="1" parent="1">
          <mxGeometry x="879" y="730.5" width="118" height="43" as="geometry" />
        </mxCell>
        <mxCell id="NgSyf8qIBcioqC7GMqng-108" style="edgeStyle=orthogonalEdgeStyle;rounded=0;orthogonalLoop=1;jettySize=auto;html=1;curved=0;exitX=1;exitY=0;exitDx=0;exitDy=5;exitPerimeter=0;entryX=0;entryY=0.5;entryDx=0;entryDy=0;entryPerimeter=0;" edge="1" parent="1" source="NgSyf8qIBcioqC7GMqng-84" target="NgSyf8qIBcioqC7GMqng-101">
          <mxGeometry relative="1" as="geometry">
            <Array as="points">
              <mxPoint x="1050" y="725.5" />
              <mxPoint x="1050" y="647.5" />
            </Array>
          </mxGeometry>
        </mxCell>
        <mxCell id="NgSyf8qIBcioqC7GMqng-109" value="更新本地缓存" style="edgeLabel;html=1;align=center;verticalAlign=middle;resizable=0;points=[];" vertex="1" connectable="0" parent="NgSyf8qIBcioqC7GMqng-108">
          <mxGeometry x="-0.0103" y="-1" relative="1" as="geometry">
            <mxPoint as="offset" />
          </mxGeometry>
        </mxCell>
        <mxCell id="NgSyf8qIBcioqC7GMqng-110" value="接收变更通知" style="text;html=1;whiteSpace=wrap;strokeColor=none;fillColor=none;align=center;verticalAlign=middle;rounded=0;" vertex="1" parent="1">
          <mxGeometry x="882" y="473.5" width="60" height="30" as="geometry" />
        </mxCell>
        <mxCell id="NgSyf8qIBcioqC7GMqng-111" value="" style="shape=flexArrow;endArrow=classic;html=1;rounded=0;" edge="1" parent="1">
          <mxGeometry width="50" height="50" relative="1" as="geometry">
            <mxPoint x="941.0699999999999" y="586" as="sourcePoint" />
            <mxPoint x="941.0699999999999" y="708" as="targetPoint" />
          </mxGeometry>
        </mxCell>
        <mxCell id="NgSyf8qIBcioqC7GMqng-112" value="确认更新" style="text;html=1;whiteSpace=wrap;strokeColor=none;fillColor=none;align=center;verticalAlign=middle;rounded=0;" vertex="1" parent="1">
          <mxGeometry x="877" y="617" width="60" height="30" as="geometry" />
        </mxCell>
        <mxCell id="NgSyf8qIBcioqC7GMqng-113" value="" style="endArrow=classic;html=1;rounded=0;entryX=0.5;entryY=1;entryDx=0;entryDy=0;entryPerimeter=0;edgeStyle=orthogonalEdgeStyle;" edge="1" parent="1" source="NgSyf8qIBcioqC7GMqng-84" target="NgSyf8qIBcioqC7GMqng-101">
          <mxGeometry width="50" height="50" relative="1" as="geometry">
            <mxPoint x="1029" y="755.5" as="sourcePoint" />
            <mxPoint x="1187" y="746.5" as="targetPoint" />
          </mxGeometry>
        </mxCell>
        <mxCell id="NgSyf8qIBcioqC7GMqng-114" value="从本地缓存查询数据&lt;div&gt;生成路由表&lt;/div&gt;" style="edgeLabel;html=1;align=center;verticalAlign=middle;resizable=0;points=[];fontColor=#FF0000;" vertex="1" connectable="0" parent="NgSyf8qIBcioqC7GMqng-113">
          <mxGeometry x="-0.3409" y="-1" relative="1" as="geometry">
            <mxPoint x="-6" y="-1" as="offset" />
          </mxGeometry>
        </mxCell>
        <mxCell id="NgSyf8qIBcioqC7GMqng-116" style="edgeStyle=orthogonalEdgeStyle;rounded=0;orthogonalLoop=1;jettySize=auto;html=1;curved=0;exitX=1;exitY=1;exitDx=0;exitDy=-5;exitPerimeter=0;" edge="1" parent="1" source="NgSyf8qIBcioqC7GMqng-84" target="NgSyf8qIBcioqC7GMqng-94">
          <mxGeometry relative="1" as="geometry" />
        </mxCell>
        <mxCell id="NgSyf8qIBcioqC7GMqng-117" value="下发路由配置" style="edgeLabel;html=1;align=center;verticalAlign=middle;resizable=0;points=[];" vertex="1" connectable="0" parent="NgSyf8qIBcioqC7GMqng-116">
          <mxGeometry x="0.0085" relative="1" as="geometry">
            <mxPoint as="offset" />
          </mxGeometry>
        </mxCell>
      </root>
    </mxGraphModel>
  </diagram>
</mxfile>
